<mxfile host="Electron" agent="Mozilla/5.0 (Windows NT 10.0; Win64; x64) AppleWebKit/537.36 (KHTML, like Gecko) draw.io/24.7.17 Chrome/128.0.6613.36 Electron/32.0.1 Safari/537.36" version="24.7.17">
  <diagram id="C5RBs43oDa-KdzZeNtuy" name="Page-1">
    <mxGraphModel dx="1036" dy="606" grid="1" gridSize="10" guides="1" tooltips="1" connect="1" arrows="1" fold="1" page="1" pageScale="1" pageWidth="827" pageHeight="1169" math="0" shadow="0">
      <root>
        <mxCell id="WIyWlLk6GJQsqaUBKTNV-0" />
        <mxCell id="WIyWlLk6GJQsqaUBKTNV-1" parent="WIyWlLk6GJQsqaUBKTNV-0" />
        <mxCell id="2gHT7uk1lt3iY2I3YBnZ-2" value="" style="edgeStyle=orthogonalEdgeStyle;rounded=0;orthogonalLoop=1;jettySize=auto;html=1;" edge="1" parent="WIyWlLk6GJQsqaUBKTNV-1" source="2gHT7uk1lt3iY2I3YBnZ-0" target="2gHT7uk1lt3iY2I3YBnZ-1">
          <mxGeometry relative="1" as="geometry" />
        </mxCell>
        <mxCell id="2gHT7uk1lt3iY2I3YBnZ-0" value="Login" style="rounded=0;whiteSpace=wrap;html=1;" vertex="1" parent="WIyWlLk6GJQsqaUBKTNV-1">
          <mxGeometry x="80" y="240" width="120" height="60" as="geometry" />
        </mxCell>
        <mxCell id="2gHT7uk1lt3iY2I3YBnZ-4" style="edgeStyle=orthogonalEdgeStyle;rounded=0;orthogonalLoop=1;jettySize=auto;html=1;entryX=0;entryY=0.5;entryDx=0;entryDy=0;" edge="1" parent="WIyWlLk6GJQsqaUBKTNV-1" source="2gHT7uk1lt3iY2I3YBnZ-1" target="2gHT7uk1lt3iY2I3YBnZ-3">
          <mxGeometry relative="1" as="geometry" />
        </mxCell>
        <mxCell id="2gHT7uk1lt3iY2I3YBnZ-1" value="Token" style="rounded=0;whiteSpace=wrap;html=1;" vertex="1" parent="WIyWlLk6GJQsqaUBKTNV-1">
          <mxGeometry x="310" y="240" width="120" height="60" as="geometry" />
        </mxCell>
        <mxCell id="2gHT7uk1lt3iY2I3YBnZ-6" value="" style="edgeStyle=orthogonalEdgeStyle;rounded=0;orthogonalLoop=1;jettySize=auto;html=1;" edge="1" parent="WIyWlLk6GJQsqaUBKTNV-1" source="2gHT7uk1lt3iY2I3YBnZ-3" target="2gHT7uk1lt3iY2I3YBnZ-5">
          <mxGeometry relative="1" as="geometry" />
        </mxCell>
        <mxCell id="2gHT7uk1lt3iY2I3YBnZ-8" value="" style="edgeStyle=orthogonalEdgeStyle;rounded=0;orthogonalLoop=1;jettySize=auto;html=1;" edge="1" parent="WIyWlLk6GJQsqaUBKTNV-1" source="2gHT7uk1lt3iY2I3YBnZ-3" target="2gHT7uk1lt3iY2I3YBnZ-7">
          <mxGeometry relative="1" as="geometry" />
        </mxCell>
        <mxCell id="2gHT7uk1lt3iY2I3YBnZ-3" value="Existe usuario" style="rhombus;whiteSpace=wrap;html=1;" vertex="1" parent="WIyWlLk6GJQsqaUBKTNV-1">
          <mxGeometry x="530" y="230" width="80" height="80" as="geometry" />
        </mxCell>
        <mxCell id="2gHT7uk1lt3iY2I3YBnZ-5" value="Registrarse" style="rounded=1;whiteSpace=wrap;html=1;" vertex="1" parent="WIyWlLk6GJQsqaUBKTNV-1">
          <mxGeometry x="510" y="50" width="120" height="60" as="geometry" />
        </mxCell>
        <mxCell id="2gHT7uk1lt3iY2I3YBnZ-11" style="edgeStyle=orthogonalEdgeStyle;rounded=0;orthogonalLoop=1;jettySize=auto;html=1;entryX=1;entryY=0.5;entryDx=0;entryDy=0;" edge="1" parent="WIyWlLk6GJQsqaUBKTNV-1" source="2gHT7uk1lt3iY2I3YBnZ-7" target="2gHT7uk1lt3iY2I3YBnZ-10">
          <mxGeometry relative="1" as="geometry" />
        </mxCell>
        <mxCell id="2gHT7uk1lt3iY2I3YBnZ-7" value="Pagina Principal" style="whiteSpace=wrap;html=1;" vertex="1" parent="WIyWlLk6GJQsqaUBKTNV-1">
          <mxGeometry x="510" y="510" width="120" height="60" as="geometry" />
        </mxCell>
        <mxCell id="2gHT7uk1lt3iY2I3YBnZ-14" value="" style="edgeStyle=orthogonalEdgeStyle;rounded=0;orthogonalLoop=1;jettySize=auto;html=1;" edge="1" parent="WIyWlLk6GJQsqaUBKTNV-1" source="2gHT7uk1lt3iY2I3YBnZ-10" target="2gHT7uk1lt3iY2I3YBnZ-13">
          <mxGeometry relative="1" as="geometry" />
        </mxCell>
        <mxCell id="2gHT7uk1lt3iY2I3YBnZ-16" value="" style="edgeStyle=orthogonalEdgeStyle;rounded=0;orthogonalLoop=1;jettySize=auto;html=1;" edge="1" parent="WIyWlLk6GJQsqaUBKTNV-1" source="2gHT7uk1lt3iY2I3YBnZ-10" target="2gHT7uk1lt3iY2I3YBnZ-15">
          <mxGeometry relative="1" as="geometry" />
        </mxCell>
        <mxCell id="2gHT7uk1lt3iY2I3YBnZ-10" value="Permisos&amp;nbsp;" style="rhombus;whiteSpace=wrap;html=1;" vertex="1" parent="WIyWlLk6GJQsqaUBKTNV-1">
          <mxGeometry x="330" y="500" width="80" height="80" as="geometry" />
        </mxCell>
        <mxCell id="2gHT7uk1lt3iY2I3YBnZ-13" value="Modificar Usuario" style="whiteSpace=wrap;html=1;" vertex="1" parent="WIyWlLk6GJQsqaUBKTNV-1">
          <mxGeometry x="150" y="510" width="120" height="60" as="geometry" />
        </mxCell>
        <mxCell id="2gHT7uk1lt3iY2I3YBnZ-15" value="Mensaje &quot;No autorizado&quot;&amp;nbsp;" style="rounded=1;whiteSpace=wrap;html=1;" vertex="1" parent="WIyWlLk6GJQsqaUBKTNV-1">
          <mxGeometry x="310" y="350" width="120" height="60" as="geometry" />
        </mxCell>
      </root>
    </mxGraphModel>
  </diagram>
</mxfile>
